
<svg version="1.0" xmlns="http://www.w3.org/2000/svg"
 width="474.000000pt" height="474.000000pt" viewBox="0 0 474.000000 474.000000"
 preserveAspectRatio="xMidYMid meet">

<g transform="translate(0.000000,474.000000) scale(0.100000,-0.100000)"
fill="#000000" stroke="none">
<path d="M2081 4639 c-124 -24 -471 -168 -525 -218 -32 -30 -100 -123 -144
-197 -42 -71 -127 -285 -151 -379 -45 -177 -53 -511 -15 -685 17 -84 20 -167
9 -383 -11 -218 15 -422 80 -636 14 -47 25 -106 25 -132 0 -74 34 -235 69
-326 75 -193 209 -362 491 -620 195 -177 315 -233 502 -233 153 0 222 23 338
113 236 184 405 367 486 529 63 124 115 382 134 655 6 87 20 205 31 263 31
167 39 262 39 450 1 131 6 202 21 285 26 143 36 406 20 545 -16 142 -41 236
-96 371 -135 328 -222 422 -465 499 -174 55 -236 68 -433 90 -178 21 -340 24
-416 9z m604 -574 c297 -46 495 -127 534 -218 101 -236 135 -419 147 -796 l7
-207 -82 -245 c-130 -392 -164 -469 -210 -469 -24 0 -34 10 -74 69 -129 194
-314 276 -506 227 -59 -15 -137 -53 -128 -62 2 -2 23 -6 48 -9 142 -17 223
-73 260 -180 37 -107 15 -182 -74 -246 -93 -67 -262 -88 -389 -49 -165 51
-230 160 -179 299 39 103 106 151 244 175 l72 12 -36 22 c-59 36 -153 55 -243
49 -63 -4 -93 -12 -150 -41 -81 -39 -165 -118 -212 -196 -32 -55 -71 -78 -101
-61 -19 10 -61 101 -124 271 -55 149 -138 414 -141 450 -4 42 9 306 23 476 15
189 104 501 160 561 49 51 210 118 361 148 227 47 570 55 793 20z"/>
<path d="M1420 1150 c-41 -14 -547 -175 -655 -208 -233 -72 -433 -250 -536
-479 -34 -73 -74 -222 -84 -310 l-7 -63 2231 0 c2205 0 2231 0 2231 19 0 36
-40 228 -59 282 -92 269 -301 468 -581 554 -47 14 -217 69 -379 121 -161 53
-297 92 -301 87 -4 -4 -22 -41 -39 -80 -113 -269 -338 -514 -586 -640 -116
-59 -240 -103 -291 -103 -59 0 -204 48 -313 105 -263 137 -450 361 -565 678
-18 48 -23 51 -66 37z"/>
</g>
</svg>


